<svg width="88" height="86" viewBox="0 0 88 86" fill="none" xmlns="http://www.w3.org/2000/svg">
<rect width="71.8551" height="70.1255" transform="matrix(0.96981 -0.243862 0.256935 0.966429 0 17.5227)" fill="#AB0039"/>
<ellipse cx="63.7516" cy="22.5" rx="5.14124" ry="4.5" fill="white"/>
<path d="M54.4975 22.5C54.4975 24.4329 52.656 26 50.3845 26C48.1129 26 46.2715 24.4329 46.2715 22.5C46.2715 20.567 48.1129 19 50.3845 19C52.656 19 54.4975 20.567 54.4975 22.5Z" fill="white"/>
<ellipse cx="50.3845" cy="33.5" rx="4.11299" ry="3.5" fill="white"/>
<ellipse cx="50.3845" cy="43.5" rx="4.11299" ry="3.5" fill="white"/>
<ellipse cx="39.073" cy="43.5" rx="3.08475" ry="2.5" fill="white"/>
<ellipse cx="28.2767" cy="43.5" rx="1.54237" ry="1.5" fill="white"/>
<ellipse cx="28.2767" cy="33.5" rx="1.54237" ry="1.5" fill="white"/>
<ellipse cx="28.2767" cy="22.5" rx="1.54237" ry="1.5" fill="white"/>
<ellipse cx="19.0229" cy="22.5" rx="0.514124" ry="0.5" fill="white"/>
<ellipse cx="19.0229" cy="33.5" rx="0.514124" ry="0.5" fill="white"/>
<ellipse cx="19.0229" cy="43.5" rx="0.514124" ry="0.5" fill="white"/>
<ellipse cx="39.073" cy="33.5" rx="3.08475" ry="2.5" fill="white"/>
<ellipse cx="39.073" cy="22.5" rx="3.08475" ry="2.5" fill="white"/>
<ellipse cx="63.7516" cy="33.5" rx="5.14124" ry="4.5" fill="white"/>
<ellipse cx="63.7516" cy="43.5" rx="5.14124" ry="4.5" fill="white"/>
</svg>
