<svg width="177" height="86" viewBox="0 0 177 86" fill="none" xmlns="http://www.w3.org/2000/svg">
<path d="M106.5 68.4C103.767 68.4 101.567 67.5666 99.9 65.9C98.2333 64.2333 97.4 62.0166 97.4 59.25V41.8C97.4 39.0333 98.2333 36.8166 99.9 35.15C101.567 33.45 103.767 32.6 106.5 32.6C109.267 32.6 111.483 33.45 113.15 35.15C114.85 36.8166 115.7 39.0333 115.7 41.8V59.25C115.7 62.0166 114.85 64.2333 113.15 65.9C111.483 67.5666 109.267 68.4 106.5 68.4ZM106.5 64.25C107.833 64.25 108.9 63.8166 109.7 62.95C110.5 62.05 110.9 60.8833 110.9 59.45V41.55C110.9 40.1166 110.5 38.9666 109.7 38.1C108.9 37.2 107.833 36.75 106.5 36.75C105.2 36.75 104.15 37.2 103.35 38.1C102.583 38.9666 102.2 40.1166 102.2 41.55V59.45C102.2 60.8833 102.583 62.05 103.35 62.95C104.15 63.8166 105.2 64.25 106.5 64.25ZM138.046 33C138.379 33 138.546 33.1666 138.546 33.5V36.65C138.546 36.9833 138.379 37.15 138.046 37.15H131.496C131.362 37.15 131.296 37.2166 131.296 37.35V67.5C131.296 67.8333 131.129 68 130.796 68H126.996C126.662 68 126.496 67.8333 126.496 67.5V37.35C126.496 37.2166 126.429 37.15 126.296 37.15H120.096C119.762 37.15 119.596 36.9833 119.596 36.65V33.5C119.596 33.1666 119.762 33 120.096 33H138.046ZM150.101 68.4C147.401 68.4 145.218 67.5833 143.551 65.95C141.918 64.2833 141.101 62.0833 141.101 59.35V41.6C141.101 38.8666 141.918 36.6833 143.551 35.05C145.218 33.4166 147.401 32.6 150.101 32.6C152.835 32.6 155.018 33.4166 156.651 35.05C158.318 36.6833 159.151 38.8666 159.151 41.6V42.4C159.151 42.7333 158.985 42.9 158.651 42.9L154.851 43.1C154.518 43.1 154.351 42.9333 154.351 42.6V41.3C154.351 39.9333 153.951 38.8333 153.151 38C152.385 37.1666 151.368 36.75 150.101 36.75C148.835 36.75 147.818 37.1666 147.051 38C146.285 38.8333 145.901 39.9333 145.901 41.3V59.7C145.901 61.0666 146.285 62.1666 147.051 63C147.818 63.8333 148.835 64.25 150.101 64.25C151.368 64.25 152.385 63.8333 153.151 63C153.951 62.1666 154.351 61.0666 154.351 59.7V58.4C154.351 58.0666 154.518 57.9 154.851 57.9L158.651 58.1C158.985 58.1 159.151 58.2666 159.151 58.6V59.35C159.151 62.0833 158.318 64.2833 156.651 65.95C155.018 67.5833 152.835 68.4 150.101 68.4Z" fill="white"/>
<rect y="17.5227" width="70" height="70" transform="rotate(-14.4967 0 17.5227)" fill="#BD2446"/>
<ellipse cx="62" cy="22.5" rx="5" ry="4.5" fill="white"/>
<path d="M53 22.5C53 24.4329 51.2091 26 49 26C46.7909 26 45 24.4329 45 22.5C45 20.567 46.7909 19 49 19C51.2091 19 53 20.567 53 22.5Z" fill="white"/>
<ellipse cx="49" cy="33.5" rx="4" ry="3.5" fill="white"/>
<ellipse cx="49" cy="43.5" rx="4" ry="3.5" fill="white"/>
<ellipse cx="38" cy="43.5" rx="3" ry="2.5" fill="white"/>
<circle cx="27.5" cy="43.5" r="1.5" fill="white"/>
<circle cx="27.5" cy="33.5" r="1.5" fill="white"/>
<circle cx="27.5" cy="22.5" r="1.5" fill="white"/>
<circle cx="18.5" cy="22.5" r="0.5" fill="white"/>
<circle cx="18.5" cy="33.5" r="0.5" fill="white"/>
<circle cx="18.5" cy="43.5" r="0.5" fill="white"/>
<ellipse cx="38" cy="33.5" rx="3" ry="2.5" fill="white"/>
<ellipse cx="38" cy="22.5" rx="3" ry="2.5" fill="white"/>
<ellipse cx="62" cy="33.5" rx="5" ry="4.5" fill="white"/>
<ellipse cx="62" cy="43.5" rx="5" ry="4.5" fill="white"/>
</svg>
