<svg width="26" height="20" viewBox="0 0 26 20" fill="none" xmlns="http://www.w3.org/2000/svg">
<path fill-rule="evenodd" clip-rule="evenodd" d="M24.6959 17.6602C25.4931 16.1964 25.8337 13.8361 25.8337 9.9965C25.8337 6.17223 25.4963 3.82561 24.6906 2.32254C23.8831 0.761704 22.9255 0.26629 21.025 0.147376C19.7276 0.0531528 16.503 0 13.0034 0C9.49637 0 6.27034 0.053133 4.96316 0.148115C3.07329 0.266573 2.11545 0.763081 1.30091 2.32825C0.50694 3.82613 0.166992 6.18422 0.166992 10.0105C0.166992 13.8151 0.508586 16.185 1.30789 17.678C2.11184 19.223 3.05441 19.7135 4.96036 19.8569C6.33021 19.9428 9.73881 20 13.0034 20C16.2607 20 19.6677 19.9428 21.025 19.8579C22.9485 19.7135 23.8909 19.2222 24.6959 17.6602ZM20.8781 2.64239C22.0669 2.71683 22.2874 2.83131 22.6642 3.56205C23.2128 4.57999 23.5003 6.57214 23.5003 10.0105C23.5003 13.4228 23.2113 15.426 22.6668 16.4262C22.2886 17.1593 22.0697 17.2734 20.8754 17.3631C19.5907 17.4434 16.2168 17.5 13.0034 17.5C9.78281 17.5 6.40719 17.4434 5.11019 17.3621C3.93067 17.2733 3.70859 17.1577 3.33885 16.4473C2.79066 15.4232 2.50033 13.4088 2.50033 9.9965C2.50033 6.58624 2.78912 4.58298 3.33437 3.55428C3.70986 2.83284 3.93351 2.71691 5.11027 2.64311C6.35625 2.55263 9.55194 2.5 13.0034 2.5C16.4475 2.5 19.6417 2.55265 20.8781 2.64239ZM10.667 6.25L16.5003 10L10.667 13.75V6.25Z" fill="black"/>
</svg>
